<mxfile host="app.diagrams.net" modified="2024-05-19T10:52:58.838Z" agent="Mozilla/5.0 (Windows NT 10.0; Win64; x64) AppleWebKit/537.36 (KHTML, like Gecko) Chrome/123.0.0.0 Safari/537.36 OPR/109.0.0.0" etag="v91JOMqzLiIMrn2Fl0Op" version="24.4.4" type="google">
  <diagram name="Pagina-1" id="pxX9eCmcA_wfoh8v_CYA">
    <mxGraphModel grid="1" page="1" gridSize="10" guides="1" tooltips="1" connect="1" arrows="1" fold="1" pageScale="1" pageWidth="827" pageHeight="1169" math="0" shadow="0">
      <root>
        <mxCell id="0" />
        <mxCell id="1" parent="0" />
        <mxCell id="Ci3nzB67hYWqeItbK3N2-4" value="dutyMgr:&lt;div&gt;DutyManager&lt;/div&gt;" style="shape=umlLifeline;perimeter=lifelinePerimeter;whiteSpace=wrap;html=1;container=1;dropTarget=0;collapsible=0;recursiveResize=0;outlineConnect=0;portConstraint=eastwest;newEdgeStyle={&quot;curved&quot;:0,&quot;rounded&quot;:0};" vertex="1" parent="1">
          <mxGeometry x="310" y="240" width="100" height="430" as="geometry" />
        </mxCell>
        <mxCell id="Ci3nzB67hYWqeItbK3N2-9" value="" style="html=1;points=[[0,0,0,0,5],[0,1,0,0,-5],[1,0,0,0,5],[1,1,0,0,-5]];perimeter=orthogonalPerimeter;outlineConnect=0;targetShapes=umlLifeline;portConstraint=eastwest;newEdgeStyle={&quot;curved&quot;:0,&quot;rounded&quot;:0};" vertex="1" parent="Ci3nzB67hYWqeItbK3N2-4">
          <mxGeometry x="45" y="76" width="10" height="344" as="geometry" />
        </mxCell>
        <mxCell id="Ci3nzB67hYWqeItbK3N2-21" value="" style="html=1;points=[[0,0,0,0,5],[0,1,0,0,-5],[1,0,0,0,5],[1,1,0,0,-5]];perimeter=orthogonalPerimeter;outlineConnect=0;targetShapes=umlLifeline;portConstraint=eastwest;newEdgeStyle={&quot;curved&quot;:0,&quot;rounded&quot;:0};" vertex="1" parent="Ci3nzB67hYWqeItbK3N2-4">
          <mxGeometry x="50" y="290" width="10" height="70" as="geometry" />
        </mxCell>
        <mxCell id="Ci3nzB67hYWqeItbK3N2-22" value="notifyTaskRearranged(ds)" style="html=1;align=left;spacingLeft=2;endArrow=block;rounded=0;edgeStyle=orthogonalEdgeStyle;curved=0;rounded=0;" edge="1" parent="Ci3nzB67hYWqeItbK3N2-4" target="Ci3nzB67hYWqeItbK3N2-21">
          <mxGeometry x="0.0039" relative="1" as="geometry">
            <mxPoint x="55" y="270" as="sourcePoint" />
            <Array as="points">
              <mxPoint x="55" y="280" />
              <mxPoint x="85" y="280" />
              <mxPoint x="85" y="300" />
            </Array>
            <mxPoint as="offset" />
          </mxGeometry>
        </mxCell>
        <mxCell id="Ci3nzB67hYWqeItbK3N2-5" value=":Object" style="shape=umlLifeline;perimeter=lifelinePerimeter;whiteSpace=wrap;html=1;container=1;dropTarget=0;collapsible=0;recursiveResize=0;outlineConnect=0;portConstraint=eastwest;newEdgeStyle={&quot;curved&quot;:0,&quot;rounded&quot;:0};" vertex="1" parent="1">
          <mxGeometry x="110" y="240" width="100" height="430" as="geometry" />
        </mxCell>
        <mxCell id="Ci3nzB67hYWqeItbK3N2-6" value="UI" style="shape=folder;fontStyle=1;spacingTop=10;tabWidth=40;tabHeight=14;tabPosition=left;html=1;whiteSpace=wrap;" vertex="1" parent="1">
          <mxGeometry x="110" y="220" width="100" height="60" as="geometry" />
        </mxCell>
        <mxCell id="Ci3nzB67hYWqeItbK3N2-7" value="&lt;font style=&quot;font-size: 24px;&quot;&gt;3 - moveTask()&lt;/font&gt;" style="text;html=1;align=center;verticalAlign=middle;resizable=0;points=[];autosize=1;strokeColor=none;fillColor=none;" vertex="1" parent="1">
          <mxGeometry x="345" y="120" width="180" height="40" as="geometry" />
        </mxCell>
        <mxCell id="Ci3nzB67hYWqeItbK3N2-10" value="moveTask(task, position)" style="html=1;verticalAlign=bottom;endArrow=block;curved=0;rounded=0;entryX=0;entryY=0;entryDx=0;entryDy=5;" edge="1" parent="1" source="Ci3nzB67hYWqeItbK3N2-5" target="Ci3nzB67hYWqeItbK3N2-9">
          <mxGeometry relative="1" as="geometry">
            <mxPoint x="285" y="321" as="sourcePoint" />
          </mxGeometry>
        </mxCell>
        <mxCell id="Ci3nzB67hYWqeItbK3N2-13" value="dutyMgr.currentDutySheet" style="shape=umlLifeline;perimeter=lifelinePerimeter;whiteSpace=wrap;html=1;container=1;dropTarget=0;collapsible=0;recursiveResize=0;outlineConnect=0;portConstraint=eastwest;newEdgeStyle={&quot;curved&quot;:0,&quot;rounded&quot;:0};" vertex="1" parent="1">
          <mxGeometry x="480" y="240" width="160" height="430" as="geometry" />
        </mxCell>
        <mxCell id="Ci3nzB67hYWqeItbK3N2-14" value="" style="html=1;points=[[0,0,0,0,5],[0,1,0,0,-5],[1,0,0,0,5],[1,1,0,0,-5]];perimeter=orthogonalPerimeter;outlineConnect=0;targetShapes=umlLifeline;portConstraint=eastwest;newEdgeStyle={&quot;curved&quot;:0,&quot;rounded&quot;:0};" vertex="1" parent="Ci3nzB67hYWqeItbK3N2-13">
          <mxGeometry x="75" y="190" width="10" height="80" as="geometry" />
        </mxCell>
        <mxCell id="Ci3nzB67hYWqeItbK3N2-15" value="moveTask(task, section)" style="html=1;verticalAlign=bottom;endArrow=block;curved=0;rounded=0;entryX=0;entryY=0;entryDx=0;entryDy=5;" edge="1" parent="1" source="Ci3nzB67hYWqeItbK3N2-9" target="Ci3nzB67hYWqeItbK3N2-14">
          <mxGeometry relative="1" as="geometry">
            <mxPoint x="485" y="435" as="sourcePoint" />
          </mxGeometry>
        </mxCell>
        <mxCell id="Ci3nzB67hYWqeItbK3N2-17" value="ds.tasks:&lt;div&gt;arrayList &amp;lt;Task&amp;gt;&lt;/div&gt;" style="shape=umlLifeline;perimeter=lifelinePerimeter;whiteSpace=wrap;html=1;container=1;dropTarget=0;collapsible=0;recursiveResize=0;outlineConnect=0;portConstraint=eastwest;newEdgeStyle={&quot;curved&quot;:0,&quot;rounded&quot;:0};" vertex="1" parent="1">
          <mxGeometry x="700" y="240" width="120" height="430" as="geometry" />
        </mxCell>
        <mxCell id="Ci3nzB67hYWqeItbK3N2-18" value="" style="html=1;points=[[0,0,0,0,5],[0,1,0,0,-5],[1,0,0,0,5],[1,1,0,0,-5]];perimeter=orthogonalPerimeter;outlineConnect=0;targetShapes=umlLifeline;portConstraint=eastwest;newEdgeStyle={&quot;curved&quot;:0,&quot;rounded&quot;:0};" vertex="1" parent="Ci3nzB67hYWqeItbK3N2-17">
          <mxGeometry x="55" y="205" width="10" height="60" as="geometry" />
        </mxCell>
        <mxCell id="Ci3nzB67hYWqeItbK3N2-19" value="remove(task)" style="html=1;verticalAlign=bottom;endArrow=block;curved=0;rounded=0;" edge="1" parent="1">
          <mxGeometry relative="1" as="geometry">
            <mxPoint x="565" y="450" as="sourcePoint" />
            <mxPoint x="755" y="450" as="targetPoint" />
          </mxGeometry>
        </mxCell>
        <mxCell id="Ci3nzB67hYWqeItbK3N2-20" value="add(position, task)" style="html=1;verticalAlign=bottom;endArrow=block;curved=0;rounded=0;" edge="1" parent="1">
          <mxGeometry relative="1" as="geometry">
            <mxPoint x="565" y="500" as="sourcePoint" />
            <mxPoint x="755" y="500" as="targetPoint" />
          </mxGeometry>
        </mxCell>
        <mxCell id="Ci3nzB67hYWqeItbK3N2-23" value="er:&lt;div&gt;DutyEventReceiver&lt;/div&gt;" style="shape=umlLifeline;whiteSpace=wrap;html=1;container=1;dropTarget=0;collapsible=0;recursiveResize=0;outlineConnect=0;portConstraint=eastwest;newEdgeStyle={&quot;curved&quot;:0,&quot;rounded&quot;:0};points=[[0,0,0,0,5],[0,1,0,0,-5],[1,0,0,0,5],[1,1,0,0,-5]];perimeter=rectanglePerimeter;targetShapes=umlLifeline;participant=label;" vertex="1" parent="1">
          <mxGeometry x="860" y="240" width="120" height="430" as="geometry" />
        </mxCell>
        <mxCell id="Ci3nzB67hYWqeItbK3N2-25" value="" style="html=1;points=[[0,0,0,0,5],[0,1,0,0,-5],[1,0,0,0,5],[1,1,0,0,-5]];perimeter=orthogonalPerimeter;outlineConnect=0;targetShapes=umlLifeline;portConstraint=eastwest;newEdgeStyle={&quot;curved&quot;:0,&quot;rounded&quot;:0};" vertex="1" parent="Ci3nzB67hYWqeItbK3N2-23">
          <mxGeometry x="55" y="335" width="10" height="20" as="geometry" />
        </mxCell>
        <mxCell id="Ci3nzB67hYWqeItbK3N2-24" value="updateTaskRearranged(ds)" style="html=1;verticalAlign=bottom;endArrow=block;curved=0;rounded=0;entryX=0;entryY=0;entryDx=0;entryDy=5;entryPerimeter=0;" edge="1" parent="1" source="Ci3nzB67hYWqeItbK3N2-21" target="Ci3nzB67hYWqeItbK3N2-25">
          <mxGeometry width="80" relative="1" as="geometry">
            <mxPoint x="820" y="580" as="sourcePoint" />
            <mxPoint x="900" y="580" as="targetPoint" />
          </mxGeometry>
        </mxCell>
        <mxCell id="Ci3nzB67hYWqeItbK3N2-26" value="&lt;font style=&quot;font-size: 8px;&quot;&gt;&lt;font style=&quot;&quot;&gt;&lt;font style=&quot;&quot;&gt;alt&lt;/font&gt;&lt;/font&gt;&lt;/font&gt;&lt;div&gt;&lt;font style=&quot;font-size: 8px;&quot;&gt;&lt;font style=&quot;&quot;&gt;&lt;span style=&quot;background-color: initial;&quot;&gt;[currentDutySheet == null ||&amp;nbsp;&lt;/span&gt;&lt;/font&gt;&lt;span style=&quot;background-color: initial;&quot;&gt;!currentDutySheet.hasTask(task)]&lt;/span&gt;&lt;/font&gt;&lt;/div&gt;" style="shape=umlFrame;whiteSpace=wrap;html=1;pointerEvents=0;width=160;height=50;" vertex="1" parent="1">
          <mxGeometry x="-10" y="330" width="1100" height="340" as="geometry" />
        </mxCell>
        <mxCell id="Ci3nzB67hYWqeItbK3N2-27" value="throw UseCaseLogicException" style="html=1;verticalAlign=bottom;endArrow=open;dashed=1;endSize=8;curved=0;rounded=0;" edge="1" parent="1">
          <mxGeometry relative="1" as="geometry">
            <mxPoint x="355" y="360" as="sourcePoint" />
            <mxPoint x="160.11538461538453" y="360" as="targetPoint" />
          </mxGeometry>
        </mxCell>
        <mxCell id="Ci3nzB67hYWqeItbK3N2-28" value="" style="endArrow=none;dashed=1;html=1;rounded=0;entryX=1.001;entryY=0.145;entryDx=0;entryDy=0;entryPerimeter=0;" edge="1" parent="1" target="Ci3nzB67hYWqeItbK3N2-26">
          <mxGeometry width="50" height="50" relative="1" as="geometry">
            <mxPoint x="-10" y="379" as="sourcePoint" />
            <mxPoint x="320" y="380" as="targetPoint" />
          </mxGeometry>
        </mxCell>
        <mxCell id="Ci3nzB67hYWqeItbK3N2-29" value="" style="endArrow=none;dashed=1;html=1;rounded=0;entryX=1.001;entryY=0.145;entryDx=0;entryDy=0;entryPerimeter=0;" edge="1" parent="1">
          <mxGeometry width="50" height="50" relative="1" as="geometry">
            <mxPoint x="-9" y="413" as="sourcePoint" />
            <mxPoint x="1092" y="413" as="targetPoint" />
          </mxGeometry>
        </mxCell>
        <mxCell id="Ci3nzB67hYWqeItbK3N2-30" value="&lt;font style=&quot;font-size: 8px;&quot;&gt;[position &amp;lt; 0 || position &amp;gt;=&amp;nbsp;&lt;/font&gt;&lt;div&gt;&lt;font style=&quot;font-size: 8px;&quot;&gt;currentDutySheet.tasksSize()]&lt;/font&gt;&lt;/div&gt;" style="text;html=1;align=center;verticalAlign=middle;resizable=0;points=[];autosize=1;strokeColor=none;fillColor=none;" vertex="1" parent="1">
          <mxGeometry x="-5" y="373" width="130" height="40" as="geometry" />
        </mxCell>
        <mxCell id="Ci3nzB67hYWqeItbK3N2-31" value="for each er in receivers" style="shape=umlFrame;whiteSpace=wrap;html=1;pointerEvents=0;width=140;height=40;" vertex="1" parent="1">
          <mxGeometry x="190" y="510" width="810" height="120" as="geometry" />
        </mxCell>
      </root>
    </mxGraphModel>
  </diagram>
</mxfile>
